<svg xmlns="http://www.w3.org/2000/svg" width="28" height="27" fill="none"><mask id="a" width="29" height="27" x="-.636" y=".019" fill="#000" maskUnits="userSpaceOnUse"><path fill="#fff" d="M-.636.019h29v27h-29z"/><path d="M25.006 11.823a11.366 11.366 0 0 0-6.779-7.72A4.456 4.456 0 0 0 14 1.02a4.446 4.446 0 0 0-4.227 3.086 11.338 11.338 0 0 0-5.055 3.993 11.286 11.286 0 0 0-1.727 3.725 2.844 2.844 0 0 0-2.627 2.832 2.844 2.844 0 0 0 2.63 2.832C4.255 22.387 8.712 26.02 14 26.02s9.745-3.632 11.006-8.532a2.844 2.844 0 0 0 2.63-2.832 2.844 2.844 0 0 0-2.63-2.832ZM1.5 14.655c0-.784.533-1.446 1.255-1.644-.05.338-.083.68-.102 1.024v.014a10.92 10.92 0 0 0-.009.188l-.002.071-.004.136a12.113 12.113 0 0 0 .011.737l.004.08.015.234.008.11a12.041 12.041 0 0 0 .025.26l.016.143.024.186.014.105A1.708 1.708 0 0 1 1.5 14.655ZM14 2.155c1.125 0 2.155.578 2.756 1.483h-.065a3.237 3.237 0 0 0-2.597 5.12L14 8.76a3.306 3.306 0 0 1-3.302-3.302A3.306 3.306 0 0 1 14 2.155Zm10.224 12.77-.002.04c-.002.077-.005.153-.01.23 0 .013 0 .026-.002.04l-.015.228c0 .015-.003.03-.004.046l-.02.22-.007.06c-.008.068-.015.135-.024.202l-.012.084a9.161 9.161 0 0 1-.025.173l-.019.112a9.281 9.281 0 0 1-.072.388c-.969 4.639-5.09 8.134-10.012 8.134-4.926 0-9.05-3.5-10.014-8.144l-.025-.127-.023-.121-.03-.173-.013-.08a10.711 10.711 0 0 1-.031-.219l-.005-.037a10.296 10.296 0 0 1-.074-1.808l.004-.094.01-.144c.006-.082.012-.164.02-.247l.003-.028a10.288 10.288 0 0 1 5.74-8.22v.018c0 .406.056.8.158 1.174A9.016 9.016 0 0 0 7.054 8.79a.568.568 0 1 0 .869.732 7.886 7.886 0 0 1 2.24-1.836 4.44 4.44 0 0 0 5.302 1.963.568.568 0 0 0 .12-1.013 2.092 2.092 0 0 1-.96-1.764 2.1 2.1 0 0 1 2.027-2.095 10.222 10.222 0 0 1 7.395 7.966l.018.097.026.152.015.091.025.171.01.072c.021.166.039.333.052.5l.005.057.012.193.004.075a9.375 9.375 0 0 1 .013.505l-.003.27Zm1.02 1.374c.007-.042.012-.086.018-.129a11.855 11.855 0 0 0 .062-.57l.008-.103.015-.237.004-.076.007-.191.002-.08a11.726 11.726 0 0 0 .001-.483l-.002-.082a13.376 13.376 0 0 0-.004-.14l-.005-.1a9.747 9.747 0 0 0-.021-.343l-.01-.113-.01-.109-.011-.112-.015-.127a10.995 10.995 0 0 0-.017-.14l-.021-.153c.722.197 1.255.86 1.255 1.644 0 .785-.533 1.447-1.255 1.644Z"/></mask><path fill="#fff" d="M25.006 11.823a11.366 11.366 0 0 0-6.779-7.72A4.456 4.456 0 0 0 14 1.02a4.446 4.446 0 0 0-4.227 3.086 11.338 11.338 0 0 0-5.055 3.993 11.286 11.286 0 0 0-1.727 3.725 2.844 2.844 0 0 0-2.627 2.832 2.844 2.844 0 0 0 2.63 2.832C4.255 22.387 8.712 26.02 14 26.02s9.745-3.632 11.006-8.532a2.844 2.844 0 0 0 2.63-2.832 2.844 2.844 0 0 0-2.63-2.832ZM1.5 14.655c0-.784.533-1.446 1.255-1.644-.05.338-.083.68-.102 1.024v.014a10.92 10.92 0 0 0-.009.188l-.002.071-.004.136a12.113 12.113 0 0 0 .011.737l.004.08.015.234.008.11a12.041 12.041 0 0 0 .025.26l.016.143.024.186.014.105A1.708 1.708 0 0 1 1.5 14.655ZM14 2.155c1.125 0 2.155.578 2.756 1.483h-.065a3.237 3.237 0 0 0-2.597 5.12L14 8.76a3.306 3.306 0 0 1-3.302-3.302A3.306 3.306 0 0 1 14 2.155Zm10.224 12.77-.002.04c-.002.077-.005.153-.01.23 0 .013 0 .026-.002.04l-.015.228c0 .015-.003.03-.004.046l-.02.22-.007.06c-.008.068-.015.135-.024.202l-.012.084a9.161 9.161 0 0 1-.025.173l-.019.112a9.281 9.281 0 0 1-.072.388c-.969 4.639-5.09 8.134-10.012 8.134-4.926 0-9.05-3.5-10.014-8.144l-.025-.127-.023-.121-.03-.173-.013-.08a10.711 10.711 0 0 1-.031-.219l-.005-.037a10.296 10.296 0 0 1-.074-1.808l.004-.094.01-.144c.006-.082.012-.164.02-.247l.003-.028a10.288 10.288 0 0 1 5.74-8.22v.018c0 .406.056.8.158 1.174A9.016 9.016 0 0 0 7.054 8.79a.568.568 0 1 0 .869.732 7.886 7.886 0 0 1 2.24-1.836 4.44 4.44 0 0 0 5.302 1.963.568.568 0 0 0 .12-1.013 2.092 2.092 0 0 1-.96-1.764 2.1 2.1 0 0 1 2.027-2.095 10.222 10.222 0 0 1 7.395 7.966l.018.097.026.152.015.091.025.171.01.072c.021.166.039.333.052.5l.005.057.012.193.004.075a9.375 9.375 0 0 1 .013.505l-.003.27Zm1.02 1.374c.007-.042.012-.086.018-.129a11.855 11.855 0 0 0 .062-.57l.008-.103.015-.237.004-.076.007-.191.002-.08a11.726 11.726 0 0 0 .001-.483l-.002-.082a13.376 13.376 0 0 0-.004-.14l-.005-.1a9.747 9.747 0 0 0-.021-.343l-.01-.113-.01-.109-.011-.112-.015-.127a10.995 10.995 0 0 0-.017-.14l-.021-.153c.722.197 1.255.86 1.255 1.644 0 .785-.533 1.447-1.255 1.644Z"/><path stroke="#fff" stroke-width=".4" d="M25.006 11.823a11.366 11.366 0 0 0-6.779-7.72A4.456 4.456 0 0 0 14 1.02a4.446 4.446 0 0 0-4.227 3.086 11.338 11.338 0 0 0-5.055 3.993 11.286 11.286 0 0 0-1.727 3.725 2.844 2.844 0 0 0-2.627 2.832 2.844 2.844 0 0 0 2.63 2.832C4.255 22.387 8.712 26.02 14 26.02s9.745-3.632 11.006-8.532a2.844 2.844 0 0 0 2.63-2.832 2.844 2.844 0 0 0-2.63-2.832ZM1.5 14.655c0-.784.533-1.446 1.255-1.644-.05.338-.083.68-.102 1.024v.014a10.92 10.92 0 0 0-.009.188l-.002.071-.004.136a12.113 12.113 0 0 0 .011.737l.004.08.015.234.008.11a12.041 12.041 0 0 0 .025.26l.016.143.024.186.014.105A1.708 1.708 0 0 1 1.5 14.655ZM14 2.155c1.125 0 2.155.578 2.756 1.483h-.065a3.237 3.237 0 0 0-2.597 5.12L14 8.76a3.306 3.306 0 0 1-3.302-3.302A3.306 3.306 0 0 1 14 2.155Zm10.224 12.77-.002.04c-.002.077-.005.153-.01.23 0 .013 0 .026-.002.04l-.015.228c0 .015-.003.03-.004.046l-.02.22-.007.06c-.008.068-.015.135-.024.202l-.012.084a9.161 9.161 0 0 1-.025.173l-.019.112a9.281 9.281 0 0 1-.072.388c-.969 4.639-5.09 8.134-10.012 8.134-4.926 0-9.05-3.5-10.014-8.144l-.025-.127-.023-.121-.03-.173-.013-.08a10.711 10.711 0 0 1-.031-.219l-.005-.037a10.296 10.296 0 0 1-.074-1.808l.004-.094.01-.144c.006-.082.012-.164.02-.247l.003-.028a10.288 10.288 0 0 1 5.74-8.22v.018c0 .406.056.8.158 1.174A9.016 9.016 0 0 0 7.054 8.79a.568.568 0 1 0 .869.732 7.886 7.886 0 0 1 2.24-1.836 4.44 4.44 0 0 0 5.302 1.963.568.568 0 0 0 .12-1.013 2.092 2.092 0 0 1-.96-1.764 2.1 2.1 0 0 1 2.027-2.095 10.222 10.222 0 0 1 7.395 7.966l.018.097.026.152.015.091.025.171.01.072c.021.166.039.333.052.5l.005.057.012.193.004.075a9.375 9.375 0 0 1 .013.505l-.003.27Zm1.02 1.374c.007-.042.012-.086.018-.129a11.855 11.855 0 0 0 .062-.57l.008-.103.015-.237.004-.076.007-.191.002-.08a11.726 11.726 0 0 0 .001-.483l-.002-.082a13.376 13.376 0 0 0-.004-.14l-.005-.1a9.747 9.747 0 0 0-.021-.343l-.01-.113-.01-.109-.011-.112-.015-.127a10.995 10.995 0 0 0-.017-.14l-.021-.153c.722.197 1.255.86 1.255 1.644 0 .785-.533 1.447-1.255 1.644Z" mask="url(#a)"/><path fill="#fff" stroke="#fff" stroke-width=".1" d="M7.54 15.3a2.326 2.326 0 0 1 2.244-1.722c1.05 0 1.972.708 2.243 1.722a.618.618 0 0 1-.437.757M7.54 15.3l1.194.32-.048-.013.048.013M7.54 15.3a.618.618 0 0 0 .437.757M7.54 15.3l.437.757m3.613 0-.013-.048.013.048Zm0 0a.617.617 0 0 1-.757-.437 1.088 1.088 0 0 0-2.099 0m0 0a.618.618 0 0 1-.757.437m.757-.437-.757.437M15.973 15.3a2.326 2.326 0 0 1 2.244-1.722c1.049 0 1.972.708 2.243 1.722a.618.618 0 0 1-.437.757l-4.05-.757Zm0 0a.618.618 0 0 0 .437.757m-.437-.757.437.757m0 0a.618.618 0 0 0 .757-.437m-.757.437.757-.437m0 0a1.088 1.088 0 0 1 1.05-.805m-1.05.805 1.05-.805m0 0c.49 0 .922.33 1.049.805m-1.05-.805 1.05.805m0 0a.618.618 0 0 0 .597.458m-.597-.458.597.458m0 0a.617.617 0 0 0 .16-.021l-.16.021ZM15.807 19.251l-.71.45-.047-.013a1.088 1.088 0 0 1-1.05.805c-.49 0-.922-.33-1.049-.805a.618.618 0 0 0-1.194.32A2.326 2.326 0 0 0 14 21.73c1.05 0 1.972-.708 2.244-1.722a.618.618 0 0 0-.437-.757Zm-.013.047Z"/></svg>