<svg xmlns="http://www.w3.org/2000/svg" width="28" height="26" fill="none"><g clip-path="url(#a)"><path stroke="#fff" stroke-linecap="round" stroke-linejoin="round" stroke-width="2" d="M24.178 13.573c-.574 6.179-6.04 10.722-12.219 10.148C5.781 23.147 1.238 17.68 1.812 11.5A11.23 11.23 0 0 1 11.959 1.355c-2.87 3.882-2.047 9.349 1.835 12.22a8.764 8.764 0 0 0 10.384 0Z"/><path fill="#fff" d="M20.084 8.656a.59.59 0 0 0-.424-.125h-2.309l2.172-2.421.212-.225.125-.162c.037-.05.062-.113.087-.163a.517.517 0 0 0 .038-.2.428.428 0 0 0-.2-.399 1.13 1.13 0 0 0-.574-.112H16.49a.587.587 0 0 0-.4.125c-.1.075-.15.2-.15.324 0 .188.063.3.188.35.175.05.362.075.55.062h1.759c-.075.1-.162.225-.287.362l-.45.512-.598.674-.687.786c-.25.275-.412.462-.487.562a.516.516 0 0 0 .05.686c.15.113.325.163.5.15h3.195c.15.013.3-.037.424-.125a.453.453 0 0 0 .137-.324c0-.137-.05-.25-.15-.337ZM27.299 4.787a.732.732 0 0 0-.524-.163h-2.909l2.721-3.033.25-.287.162-.2a.695.695 0 0 0 .113-.212.56.56 0 0 0 .05-.25.507.507 0 0 0-.25-.498 1.869 1.869 0 0 0-.736-.125h-3.408a.72.72 0 0 0-.5.15.505.505 0 0 0-.174.411c0 .238.075.375.237.425.225.062.45.087.687.087h2.196a6.362 6.362 0 0 1-.362.45l-.574.649-.749.823-.886.986c-.312.35-.512.574-.599.687a.655.655 0 0 0 .063.886.98.98 0 0 0 .636.187h4.007c.2.025.387-.025.549-.137.112-.1.187-.25.175-.412a.508.508 0 0 0-.175-.424Z"/></g><defs><clipPath id="a"><path fill="#fff" d="M.514.019h26.972v25H.514z"/></clipPath></defs></svg>