<svg xmlns="http://www.w3.org/2000/svg" width="26" height="26" fill="none"><g fill="#fff" clip-path="url(#a)"><path d="M23.288 14.12a.46.46 0 0 1 .456.462v2.064a.46.46 0 0 1-.456.462h-6.73a.46.46 0 0 1-.456-.462v-2.064a.46.46 0 0 1 .456-.462h6.73Zm0-1.78h-6.73c-1.217 0-2.212 1.009-2.212 2.242v2.064c0 1.233.995 2.241 2.212 2.241h6.73c1.217 0 2.212-1.008 2.212-2.241v-2.064c0-1.233-.995-2.241-2.212-2.241ZM17.319 1.798a.46.46 0 0 1 .456.462v6.82a.46.46 0 0 1-.456.462h-2.037a.46.46 0 0 1-.456-.462V2.26a.46.46 0 0 1 .456-.462h2.037Zm0-1.78h-2.037c-1.217 0-2.212 1.009-2.212 2.242v6.82c0 1.233.995 2.241 2.212 2.241h2.037c1.217 0 2.212-1.008 2.212-2.241V2.26c0-1.233-.983-2.241-2.212-2.241ZM11.045 15.496a.46.46 0 0 1 .457.462v6.82a.46.46 0 0 1-.457.462H9.01a.46.46 0 0 1-.457-.463v-6.819a.46.46 0 0 1 .457-.462h2.036Zm0-1.78H9.01c-1.217 0-2.212 1.009-2.212 2.242v6.82c0 1.233.995 2.24 2.212 2.24h2.036c1.218 0 2.212-1.007 2.212-2.24v-6.82c0-1.233-.994-2.241-2.212-2.241ZM9.442 8.036a.46.46 0 0 1 .456.462v2.076a.46.46 0 0 1-.456.462h-6.73a.46.46 0 0 1-.456-.462V8.498a.46.46 0 0 1 .456-.462h6.73Zm0-1.78h-6.73C1.495 6.257.5 7.266.5 8.499v2.076c0 1.233.995 2.241 2.212 2.241h6.73c1.217 0 2.212-1.008 2.212-2.241V8.498c0-1.233-.995-2.241-2.212-2.241Z"/></g><defs><clipPath id="a"><path fill="#fff" d="M.5.019h25v25H.5z"/></clipPath></defs></svg>